<?xml version="1.0" standalone="no"?>
<!DOCTYPE svg PUBLIC "-//W3C//DTD SVG 20010904//EN"
 "http://www.w3.org/TR/2001/REC-SVG-20010904/DTD/svg10.dtd">
<svg version="1.0" xmlns="http://www.w3.org/2000/svg"
 width="600.000000pt" height="600.000000pt" viewBox="0 0 600.000000 600.000000"
 preserveAspectRatio="xMidYMid meet">
<metadata>
Created by potrace 1.11, written by Peter Selinger 2001-2013
</metadata>
<g transform="translate(0.000000,600.000000) scale(0.100000,-0.100000)"
fill="#000000" stroke="none">
<path d="M1267 5654 c-1 -1 -31 -5 -67 -8 -36 -4 -93 -14 -125 -22 -33 -8 -64
-16 -70 -17 -30 -8 -138 -56 -188 -84 -33 -18 -61 -33 -64 -33 -4 0 -79 -55
-168 -122 -45 -35 -205 -197 -250 -253 -22 -27 -46 -54 -52 -58 -7 -4 -13 -15
-13 -22 0 -8 -4 -15 -8 -15 -5 0 -31 -33 -58 -72 -27 -40 -52 -75 -55 -78 -6
-5 -32 -51 -35 -60 0 -3 -3 -12 -7 -20 -17 -46 -41 -178 -53 -295 -8 -74 -7
-310 0 -385 9 -82 20 -165 31 -222 3 -16 7 -38 9 -50 2 -13 9 -43 15 -68 7
-25 14 -56 17 -70 12 -56 106 -322 148 -419 47 -106 179 -364 208 -405 5 -6
44 -67 89 -136 45 -69 86 -127 90 -128 5 -2 9 -10 9 -18 0 -8 4 -14 9 -14 5 0
12 -8 15 -17 3 -10 18 -32 33 -48 16 -17 54 -64 85 -105 32 -41 71 -91 89
-110 95 -108 152 -171 195 -217 27 -28 68 -73 91 -100 22 -26 49 -57 60 -68
10 -11 65 -74 123 -140 58 -66 114 -129 125 -141 20 -22 124 -137 180 -202 17
-18 54 -59 83 -89 28 -31 52 -57 52 -58 0 -4 86 -99 146 -161 33 -35 59 -64
57 -64 -2 0 9 -13 24 -28 15 -16 78 -81 138 -146 278 -300 515 -536 537 -536
4 0 -15 64 -43 143 -27 78 -49 143 -49 144 -1 5 -10 32 -17 51 -3 9 -7 22 -9
27 -1 6 -28 82 -59 170 -31 88 -58 167 -60 175 -2 8 -13 40 -24 70 -49 136
-113 322 -115 333 -1 7 -12 39 -25 72 -13 33 -24 67 -26 75 -2 8 -21 65 -43
125 -22 61 -40 113 -41 118 0 4 -8 23 -16 43 -8 20 -15 43 -15 50 0 8 -4 22
-9 32 -12 22 -23 52 -28 76 -2 11 -5 22 -8 24 -2 3 7 20 22 38 14 19 21 34 17
34 -5 0 -4 4 2 8 6 4 52 70 102 147 51 77 96 145 101 151 4 5 14 21 21 35 7
13 16 26 19 29 13 11 181 271 181 280 0 5 4 10 8 10 4 0 21 23 37 50 16 27 33
50 37 50 4 0 8 5 8 11 0 6 9 22 20 36 15 19 17 30 10 44 -17 31 -204 294 -212
297 -5 2 -8 8 -8 13 0 5 -24 42 -54 82 -29 39 -53 76 -54 81 0 5 -4 12 -9 15
-13 9 -233 320 -233 329 0 4 -9 14 -20 22 -11 8 -20 22 -20 31 0 9 9 28 20 42
11 14 20 30 20 36 0 6 3 11 8 11 4 0 18 17 32 38 24 35 29 42 58 76 6 8 12 18
12 20 0 3 15 25 33 49 17 24 40 54 49 68 52 71 99 135 107 145 5 7 7 15 4 18
-4 3 -2 6 4 6 6 0 26 23 44 51 18 28 37 56 43 62 7 7 32 41 56 77 25 36 48 69
53 75 4 5 23 32 43 58 l36 48 -43 57 c-79 104 -152 186 -264 297 -115 113
-150 144 -252 221 -32 24 -63 48 -68 52 -16 13 -130 85 -132 84 -2 -1 -31 15
-65 34 -70 40 -198 96 -198 87 0 -3 -7 0 -15 7 -8 7 -15 9 -15 5 0 -4 -6 -3
-12 3 -7 5 -29 13 -48 18 -19 4 -42 9 -50 11 -65 15 -283 36 -293 27z"/>
<path d="M4565 5642 c-2 -2 -23 -6 -47 -7 -58 -4 -144 -22 -168 -35 -11 -6
-20 -8 -20 -5 0 15 -313 -121 -330 -144 -3 -3 -16 -11 -30 -18 -26 -11 -158
-104 -231 -163 -24 -19 -94 -86 -156 -147 -92 -92 -134 -145 -231 -290 -65
-98 -121 -186 -125 -196 -3 -9 -11 -17 -17 -17 -5 0 -10 -6 -10 -14 0 -8 -6
-21 -13 -28 -8 -7 -20 -24 -27 -38 -7 -13 -17 -29 -22 -34 -22 -27 -158 -239
-158 -247 0 -5 -4 -9 -10 -9 -5 0 -10 -6 -10 -14 0 -8 -3 -16 -7 -18 -5 -1
-42 -55 -83 -118 -41 -63 -77 -117 -80 -120 -3 -3 -11 -17 -19 -32 -8 -15 -22
-37 -33 -47 -10 -11 -18 -26 -18 -33 0 -8 77 -128 170 -268 94 -140 170 -258
170 -262 0 -4 4 -8 8 -8 5 0 13 -10 19 -22 6 -13 56 -89 111 -170 l100 -147
-28 -43 c-236 -367 -294 -456 -305 -475 -5 -9 -14 -22 -18 -27 -7 -10 -33 -50
-138 -216 -16 -25 -33 -50 -39 -57 -5 -7 -10 -16 -10 -20 0 -4 -11 -20 -24
-36 l-23 -27 23 -68 c13 -37 24 -67 23 -67 0 0 2 -7 5 -15 3 -8 24 -71 46
-140 23 -69 44 -132 47 -140 4 -8 7 -17 8 -20 2 -11 67 -206 72 -220 4 -8 7
-18 8 -22 2 -5 4 -10 5 -13 1 -3 4 -9 5 -15 1 -5 3 -11 5 -12 1 -2 3 -10 5
-18 1 -8 19 -62 40 -120 20 -58 38 -113 40 -123 2 -9 7 -22 10 -27 3 -5 8 -18
10 -27 2 -10 41 -126 86 -258 44 -132 82 -244 84 -250 2 -9 6 -22 22 -62 3
-10 7 -20 7 -23 10 -41 32 -100 37 -100 34 0 424 386 754 745 17 18 55 61 85
95 30 35 71 80 90 101 19 20 46 51 60 67 40 47 143 164 168 190 12 12 22 25
22 28 0 3 10 15 23 28 12 12 38 42 57 65 19 23 44 52 55 65 11 13 38 44 60 71
22 26 45 52 50 59 6 6 34 40 64 76 30 36 60 70 65 75 6 6 24 28 41 50 16 22
39 51 51 65 63 72 127 150 179 215 22 28 46 58 55 67 8 9 20 23 25 30 6 7 26
33 45 57 19 25 42 55 50 67 8 12 50 72 93 132 42 61 77 115 77 121 0 6 3 11 8
11 4 0 20 25 37 55 16 30 33 55 37 55 4 0 8 4 8 10 0 5 13 32 30 60 16 27 26
50 22 50 -4 0 -2 4 4 8 16 9 152 293 153 317 0 3 7 18 15 33 14 27 67 175 70
196 1 6 4 16 8 21 3 6 16 53 28 105 12 52 24 106 27 120 3 14 8 39 10 55 9 69
11 80 12 80 11 0 17 375 8 435 -18 116 -22 135 -32 183 -3 12 -7 32 -9 45 -3
12 -8 27 -11 32 -3 5 -8 18 -10 27 -27 135 -166 391 -268 493 -165 165 -414
322 -602 380 -38 12 -77 24 -85 27 -8 3 -26 7 -40 8 -14 2 -45 6 -70 10 -48 8
-248 13 -255 7z"/>
</g>
</svg>
